# xmcd CD database file
#
# Track frame offsets:
#	150
#	22683
#	41595
#	58405
#	74911
#	105095
#	148533
#	161905
#	191621
#	209589
#	236082
#	254004
#	270511
#	287299
#	303549
#
# Disc length: 4411 seconds
#
# Revision: 1
# Processed by: cddbd v1.5.1PL2 Copyright (c) Steve Scherf et al.
# Submitted via: CDex 1.51
#
DISCID=e211390f
DTITLE=Various Artist - Alternate Endings
DYEAR=2006
DGENRE=Metal
TTITLE0=Voivod - The X-Stream
TTITLE1=the Gathering - Shortest Day
TTITLE2=Green Carnation - Alone
TTITLE3=Head Control System - Wonderworld
TTITLE4=Giant Squid - Neonate
TTITLE5=Agalloch - Falling Snow
TTITLE6=Virgin Black - Adelaide Symphony Orchestra Sessions
TTITLE7=Sleepytime Gorilla Museum - Sleep Is Wrong
TTITLE8=Dissection - Starless Aeon
TTITLE9=Unexpect - Megalomaniac Trees
TTITLE10=Thine Eyes Bleed - Cold Victim
TTITLE11=Sadus - Sick
TTITLE12=Impaled Nazarene - For Those Who Have Fallen
TTITLE13=Laethora - Black Void Remembrance
TTITLE14=Yyrkoon - Signs
EXTD=The End records\n YEAR: 2006
EXTT0=
EXTT1=
EXTT2=
EXTT3=
EXTT4=
EXTT5=
EXTT6=
EXTT7=
EXTT8=
EXTT9=
EXTT10=
EXTT11=
EXTT12=
EXTT13=
EXTT14=
PLAYORDER=
